<svg width="40" height="40" viewBox="0 0 40 40" fill="none" xmlns="http://www.w3.org/2000/svg">
<path fill-rule="evenodd" clip-rule="evenodd" d="M20 40C8.9543 40 0 31.0457 0 20C0 8.9543 8.9543 0 20 0C31.0457 0 40 8.9543 40 20C40 31.0457 31.0457 40 20 40ZM10.6667 28.6667H14V11.3333H10.6667V28.6667ZM16 18.01C16 14.3284 18.9953 11.3333 22.6771 11.3333C26.3473 11.3333 29.3333 14.3284 29.3333 18.01C29.3333 21.6805 26.3473 24.6667 22.6771 24.6667C18.9953 24.6667 16 21.6805 16 18.01Z" fill="white"/>
</svg>
