<svg width="36" height="30" viewBox="0 0 36 30" fill="none" xmlns="http://www.w3.org/2000/svg">
<path d="M31.3125 0H4.47321C3.28684 0 2.14906 0.549684 1.31017 1.52813C0.47128 2.50659 0 3.83365 0 5.21739V24.7826C0 26.1663 0.47128 27.4934 1.31017 28.4719C2.14906 29.4503 3.28684 30 4.47321 30H31.3125C32.4989 30 33.6367 29.4503 34.4755 28.4719C35.3144 27.4934 35.7857 26.1663 35.7857 24.7826V5.21739C35.7857 3.83365 35.3144 2.50659 34.4755 1.52813C33.6367 0.549684 32.4989 0 31.3125 0ZM10.8475 19.1869L6.37433 24.4043C6.15618 24.5797 5.89176 24.659 5.62815 24.6282C5.36455 24.5973 5.11888 24.4584 4.93493 24.236C4.75098 24.0136 4.64071 23.7223 4.62374 23.4139C4.60676 23.1055 4.6842 22.8002 4.84226 22.5522L9.31547 17.3348C9.525 17.0919 9.80844 16.9555 10.1039 16.9555C10.3993 16.9555 10.6828 17.0919 10.8923 17.3348C10.9942 17.4595 11.074 17.6064 11.1269 17.7672C11.1799 17.9281 11.205 18.0995 11.2009 18.2717C11.1967 18.4439 11.1634 18.6135 11.1027 18.7706C11.0421 18.9277 10.9553 19.0692 10.8475 19.1869ZM17.8929 20.8696C17.6316 20.8702 17.3783 20.764 17.1771 20.5696L4.8758 8.83042C4.75216 8.72586 4.64818 8.59287 4.57029 8.43965C4.4924 8.28643 4.44224 8.11623 4.42291 7.93953C4.40358 7.76284 4.41549 7.58339 4.45789 7.41227C4.50029 7.24114 4.57228 7.08198 4.66945 6.94455C4.76662 6.80713 4.88689 6.69439 5.02284 6.61325C5.1588 6.53212 5.30757 6.48433 5.45997 6.47282C5.61237 6.46131 5.76518 6.48633 5.90898 6.54634C6.05277 6.60635 6.18451 6.70009 6.29605 6.82175L17.8929 17.8826L29.4449 6.82175C29.5586 6.71267 29.6897 6.63084 29.8305 6.58097C29.9714 6.5311 30.1194 6.51413 30.2659 6.53109C30.4123 6.54806 30.5545 6.5986 30.6843 6.67981C30.814 6.76102 30.9287 6.87131 31.0217 7.00434C31.2071 7.2714 31.2947 7.61301 31.2654 7.95494C31.2361 8.29686 31.0923 8.61147 30.8652 8.83042L18.5638 20.5696C18.3746 20.7529 18.1387 20.8584 17.8929 20.8696ZM30.977 24.4043C30.7675 24.6473 30.484 24.7836 30.1886 24.7836C29.8932 24.7836 29.6097 24.6473 29.4002 24.4043L24.927 19.1869C24.8222 19.0657 24.739 18.9214 24.6822 18.7625C24.6254 18.6036 24.5962 18.4331 24.5962 18.2609C24.5962 18.0887 24.6254 17.9182 24.6822 17.7592C24.739 17.6003 24.8222 17.4561 24.927 17.3348C25.1365 17.0919 25.4199 16.9555 25.7154 16.9555C26.0108 16.9555 26.2943 17.0919 26.5038 17.3348L30.977 22.5522C31.0818 22.6734 31.165 22.8177 31.2218 22.9766C31.2786 23.1356 31.3078 23.3061 31.3078 23.4783C31.3078 23.6505 31.2786 23.8209 31.2218 23.9799C31.165 24.1388 31.0818 24.2831 30.977 24.4043Z" fill="white"/>
</svg>
