<svg width="302" height="677" viewBox="0 0 302 677" fill="none" xmlns="http://www.w3.org/2000/svg">
<circle cx="102.101" cy="311.059" r="5.55415" transform="rotate(-44.1631 102.101 311.059)" fill="#EBECEC"/>
<circle cx="78.195" cy="334.276" r="5.55415" transform="rotate(-44.1631 78.195 334.276)" fill="#EBECEC"/>
<circle cx="54.289" cy="357.494" r="5.55415" transform="rotate(-44.1631 54.289 357.494)" fill="#EBECEC"/>
<circle cx="78.8832" cy="287.153" r="5.55415" transform="rotate(-44.1631 78.8832 287.153)" fill="#EBECEC"/>
<circle cx="54.9773" cy="310.37" r="5.55415" transform="rotate(-44.1631 54.9773 310.37)" fill="#EBECEC"/>
<circle cx="31.0714" cy="333.588" r="5.55415" transform="rotate(-44.1631 31.0714 333.588)" fill="#EBECEC"/>
<circle cx="55.6657" cy="263.247" r="5.55415" transform="rotate(-44.1631 55.6657 263.247)" fill="#EBECEC"/>
<circle cx="31.7598" cy="286.464" r="5.55415" transform="rotate(-44.1631 31.7598 286.464)" fill="#EBECEC"/>
<circle cx="7.85391" cy="309.682" r="5.55415" transform="rotate(-44.1631 7.85391 309.682)" fill="#EBECEC"/>
<circle cx="125.318" cy="334.965" r="5.55415" transform="rotate(-44.1631 125.318 334.965)" fill="#EBECEC"/>
<circle cx="101.413" cy="358.182" r="5.55415" transform="rotate(-44.1631 101.413 358.182)" fill="#EBECEC"/>
<circle cx="77.5065" cy="381.4" r="5.55415" transform="rotate(-44.1631 77.5065 381.4)" fill="#EBECEC"/>
<circle cx="148.536" cy="358.871" r="5.55415" transform="rotate(-44.1631 148.536 358.871)" fill="#EBECEC"/>
<circle cx="124.63" cy="382.088" r="5.55415" transform="rotate(-44.1631 124.63 382.088)" fill="#EBECEC"/>
<circle cx="100.724" cy="405.306" r="5.55415" transform="rotate(-44.1631 100.724 405.306)" fill="#EBECEC"/>
<circle cx="171.754" cy="382.776" r="5.55415" transform="rotate(-44.1631 171.754 382.776)" fill="#EBECEC"/>
<circle cx="147.848" cy="405.994" r="5.55415" transform="rotate(-44.1631 147.848 405.994)" fill="#EBECEC"/>
<circle cx="123.942" cy="429.211" r="5.55415" transform="rotate(-44.1631 123.942 429.211)" fill="#EBECEC"/>
<circle cx="194.971" cy="406.682" r="5.55415" transform="rotate(-44.1631 194.971 406.682)" fill="#EBECEC"/>
<circle cx="171.065" cy="429.9" r="5.55415" transform="rotate(-44.1631 171.065 429.9)" fill="#EBECEC"/>
<circle cx="147.159" cy="453.117" r="5.55415" transform="rotate(-44.1631 147.159 453.117)" fill="#EBECEC"/>
<circle cx="218.189" cy="430.588" r="5.55415" transform="rotate(-44.1631 218.189 430.588)" fill="#EBECEC"/>
<circle cx="194.283" cy="453.806" r="5.55415" transform="rotate(-44.1631 194.283 453.806)" fill="#EBECEC"/>
<circle cx="170.377" cy="477.023" r="5.55415" transform="rotate(-44.1631 170.377 477.023)" fill="#EBECEC"/>
<circle cx="241.406" cy="454.494" r="5.55415" transform="rotate(-44.1631 241.406 454.494)" fill="#EBECEC"/>
<circle cx="264.624" cy="478.4" r="5.55415" transform="rotate(-44.1631 264.624 478.4)" fill="#EBECEC"/>
<circle cx="287.841" cy="502.306" r="5.55415" transform="rotate(-44.1631 287.841 502.306)" fill="#EBECEC"/>
<circle cx="217.5" cy="477.712" r="5.55415" transform="rotate(-44.1631 217.5 477.712)" fill="#EBECEC"/>
<circle cx="240.718" cy="501.618" r="5.55415" transform="rotate(-44.1631 240.718 501.618)" fill="#EBECEC"/>
<circle cx="263.935" cy="525.524" r="5.55415" transform="rotate(-44.1631 263.935 525.524)" fill="#EBECEC"/>
<circle cx="287.153" cy="549.43" r="5.55415" transform="rotate(-44.1631 287.153 549.43)" fill="#EBECEC"/>
<circle cx="193.594" cy="500.929" r="5.55415" transform="rotate(-44.1631 193.594 500.929)" fill="#EBECEC"/>
<circle cx="216.812" cy="524.835" r="5.55415" transform="rotate(-44.1631 216.812 524.835)" fill="#EBECEC"/>
<circle cx="240.029" cy="548.741" r="5.55415" transform="rotate(-44.1631 240.029 548.741)" fill="#EBECEC"/>
<circle cx="263.247" cy="572.647" r="5.55415" transform="rotate(-44.1631 263.247 572.647)" fill="#EBECEC"/>
<circle cx="286.464" cy="596.553" r="5.55415" transform="rotate(-44.1631 286.464 596.553)" fill="#EBECEC"/>
<circle cx="309.682" cy="620.459" r="5.55415" transform="rotate(-44.1631 309.682 620.459)" fill="#EBECEC"/>
<circle cx="126.007" cy="287.841" r="5.55415" transform="rotate(-44.1631 126.007 287.841)" fill="#EBECEC"/>
<circle cx="102.789" cy="263.935" r="5.55415" transform="rotate(-44.1631 102.789 263.935)" fill="#EBECEC"/>
<circle cx="79.5717" cy="240.029" r="5.55415" transform="rotate(-44.1631 79.5717 240.029)" fill="#EBECEC"/>
<circle cx="149.224" cy="311.747" r="5.55415" transform="rotate(-44.1631 149.224 311.747)" fill="#EBECEC"/>
<circle cx="172.442" cy="335.653" r="5.55415" transform="rotate(-44.1631 172.442 335.653)" fill="#EBECEC"/>
<circle cx="195.659" cy="359.559" r="5.55415" transform="rotate(-44.1631 195.659 359.559)" fill="#EBECEC"/>
<circle cx="218.877" cy="383.465" r="5.55415" transform="rotate(-44.1631 218.877 383.465)" fill="#EBECEC"/>
<circle cx="242.094" cy="407.371" r="5.55415" transform="rotate(-44.1631 242.094 407.371)" fill="#EBECEC"/>
<circle cx="265.312" cy="431.277" r="5.55415" transform="rotate(-44.1631 265.312 431.277)" fill="#EBECEC"/>
<circle cx="288.529" cy="455.183" r="5.55415" transform="rotate(-44.1631 288.529 455.183)" fill="#EBECEC"/>
<circle cx="149.913" cy="264.624" r="5.55415" transform="rotate(-44.1631 149.913 264.624)" fill="#EBECEC"/>
<circle cx="126.695" cy="240.718" r="5.55415" transform="rotate(-44.1631 126.695 240.718)" fill="#EBECEC"/>
<circle cx="103.478" cy="216.812" r="5.55415" transform="rotate(-44.1631 103.478 216.812)" fill="#EBECEC"/>
<circle cx="173.13" cy="288.53" r="5.55415" transform="rotate(-44.1631 173.13 288.53)" fill="#EBECEC"/>
<circle cx="196.348" cy="312.435" r="5.55415" transform="rotate(-44.1631 196.348 312.435)" fill="#EBECEC"/>
<circle cx="219.565" cy="336.341" r="5.55415" transform="rotate(-44.1631 219.565 336.341)" fill="#EBECEC"/>
<circle cx="242.783" cy="360.247" r="5.55415" transform="rotate(-44.1631 242.783 360.247)" fill="#EBECEC"/>
<circle cx="266" cy="384.153" r="5.55415" transform="rotate(-44.1631 266 384.153)" fill="#EBECEC"/>
<circle cx="289.218" cy="408.059" r="5.55415" transform="rotate(-44.1631 289.218 408.059)" fill="#EBECEC"/>
<circle cx="173.819" cy="241.406" r="5.55415" transform="rotate(-44.1631 173.819 241.406)" fill="#EBECEC"/>
<circle cx="150.601" cy="217.5" r="5.55415" transform="rotate(-44.1631 150.601 217.5)" fill="#EBECEC"/>
<circle cx="127.383" cy="193.594" r="5.55415" transform="rotate(-44.1631 127.383 193.594)" fill="#EBECEC"/>
<circle cx="197.036" cy="265.312" r="5.55415" transform="rotate(-44.1631 197.036 265.312)" fill="#EBECEC"/>
<circle cx="220.254" cy="289.218" r="5.55415" transform="rotate(-44.1631 220.254 289.218)" fill="#EBECEC"/>
<circle cx="243.471" cy="313.124" r="5.55415" transform="rotate(-44.1631 243.471 313.124)" fill="#EBECEC"/>
<circle cx="266.689" cy="337.03" r="5.55415" transform="rotate(-44.1631 266.689 337.03)" fill="#EBECEC"/>
<circle cx="289.906" cy="360.936" r="5.55415" transform="rotate(-44.1631 289.906 360.936)" fill="#EBECEC"/>
<circle cx="197.725" cy="218.189" r="5.55415" transform="rotate(-44.1631 197.725 218.189)" fill="#EBECEC"/>
<circle cx="174.507" cy="194.283" r="5.55415" transform="rotate(-44.1631 174.507 194.283)" fill="#EBECEC"/>
<circle cx="151.289" cy="170.377" r="5.55415" transform="rotate(-44.1631 151.289 170.377)" fill="#EBECEC"/>
<circle cx="220.942" cy="242.094" r="5.55415" transform="rotate(-44.1631 220.942 242.094)" fill="#EBECEC"/>
<circle cx="244.16" cy="266" r="5.55415" transform="rotate(-44.1631 244.16 266)" fill="#EBECEC"/>
<circle cx="267.377" cy="289.906" r="5.55415" transform="rotate(-44.1631 267.377 289.906)" fill="#EBECEC"/>
<circle cx="290.595" cy="313.812" r="5.55415" transform="rotate(-44.1631 290.595 313.812)" fill="#EBECEC"/>
<circle cx="221.631" cy="194.971" r="5.55415" transform="rotate(-44.1631 221.631 194.971)" fill="#EBECEC"/>
<circle cx="245.537" cy="171.753" r="5.55415" transform="rotate(-44.1631 245.537 171.753)" fill="#EBECEC"/>
<circle cx="269.443" cy="148.536" r="5.55415" transform="rotate(-44.1631 269.443 148.536)" fill="#EBECEC"/>
<circle cx="293.348" cy="125.318" r="5.55415" transform="rotate(-44.1631 293.348 125.318)" fill="#EBECEC"/>
<circle cx="198.413" cy="171.065" r="5.55415" transform="rotate(-44.1631 198.413 171.065)" fill="#EBECEC"/>
<circle cx="222.319" cy="147.848" r="5.55415" transform="rotate(-44.1631 222.319 147.848)" fill="#EBECEC"/>
<circle cx="246.225" cy="124.63" r="5.55415" transform="rotate(-44.1631 246.225 124.63)" fill="#EBECEC"/>
<circle cx="270.131" cy="101.412" r="5.55415" transform="rotate(-44.1631 270.131 101.412)" fill="#EBECEC"/>
<circle cx="294.037" cy="78.1949" r="5.55415" transform="rotate(-44.1631 294.037 78.1949)" fill="#EBECEC"/>
<circle cx="175.195" cy="147.159" r="5.55415" transform="rotate(-44.1631 175.195 147.159)" fill="#EBECEC"/>
<circle cx="199.101" cy="123.942" r="5.55415" transform="rotate(-44.1631 199.101 123.942)" fill="#EBECEC"/>
<circle cx="223.007" cy="100.724" r="5.55415" transform="rotate(-44.1631 223.007 100.724)" fill="#EBECEC"/>
<circle cx="246.913" cy="77.5066" r="5.55415" transform="rotate(-44.1631 246.913 77.5066)" fill="#EBECEC"/>
<circle cx="270.819" cy="54.289" r="5.55415" transform="rotate(-44.1631 270.819 54.289)" fill="#EBECEC"/>
<circle cx="294.725" cy="31.0715" r="5.55415" transform="rotate(-44.1631 294.725 31.0715)" fill="#EBECEC"/>
<circle cx="244.848" cy="218.877" r="5.55415" transform="rotate(-44.1631 244.848 218.877)" fill="#EBECEC"/>
<circle cx="268.754" cy="195.659" r="5.55415" transform="rotate(-44.1631 268.754 195.659)" fill="#EBECEC"/>
<circle cx="292.66" cy="172.442" r="5.55415" transform="rotate(-44.1631 292.66 172.442)" fill="#EBECEC"/>
<circle cx="268.066" cy="242.783" r="5.55415" transform="rotate(-44.1631 268.066 242.783)" fill="#EBECEC"/>
<circle cx="291.971" cy="219.565" r="5.55415" transform="rotate(-44.1631 291.971 219.565)" fill="#EBECEC"/>
<circle cx="291.283" cy="266.689" r="5.55415" transform="rotate(-44.1631 291.283 266.689)" fill="#EBECEC"/>
</svg>
